<?xml version="1.0" encoding="utf-8"?>
<!-- Generator: Adobe Illustrator 25.4.1, SVG Export Plug-In . SVG Version: 6.00 Build 0)  -->
<svg version="1.0" id="katman_1" xmlns="http://www.w3.org/2000/svg" xmlns:xlink="http://www.w3.org/1999/xlink" x="0px" y="0px"
	 viewBox="0 0 1700 1200" style="enable-background:new 0 0 1700 1200;" xml:space="preserve">
<style type="text/css">
	.st0{fill:#1D1D1B;}
	.st1{display:none;}
	.st2{display:inline;}
</style>
<g>
	<g>
		<g transform="matrix(0.4000000059604645,0,0,0.4000000059604645,35,34.599998474121094)">
			<g transform="matrix(1,0,0,1,52.14500045776367,38.465999603271484)">
				<path class="st0" d="M1004.3,1335.5c-12.4-80.9-81-140.6-166.6-140.6c-87.4,0-158.7,58.9-176.5,140.6h-76.1v61h72.9
					c9.9,94.3,86.8,163.6,181.1,163.6c72.5,0,131.3-28.7,157.1-76l-63.8-40.9c-16.5,27.3-52.4,44.5-91.8,44.5
					c-56.7,0-95.4-34.4-104-91.1h266.9h57.4l20.1-61H1004.3z M833.5,1260.9c48.1,0,84.7,30.8,89,74.6H739.5
					C751.7,1289.6,785.4,1260.9,833.5,1260.9z"/>
			</g>
		</g>
		<g>
			<polygon class="st0" points="633.7,620.2 566.8,468.6 526.4,468.6 526.4,669.5 559.9,669.5 559.9,534.6 618.8,669.5 643.4,669.5 
				703.4,534.6 703.4,669.5 737,669.5 737,468.6 702.6,468.6 			"/>
			<path class="st0" d="M833.9,526.3c-41,0-72.6,31.6-72.6,73.2c0,41.6,31.6,72.9,72.6,72.9c41,0,72.9-31.3,72.9-72.9
				C906.8,557.9,875,526.3,833.9,526.3z M833.9,641.7c-23.2,0-41-18.4-41-42.2c0-24.1,17.8-42.5,41-42.5c23.2,0,41.3,18.4,41.3,42.5
				C875.3,623.3,857.2,641.7,833.9,641.7z"/>
			<path class="st0" d="M1006.2,526.3c-17.8,0-34.4,8.3-43,21.8v-18.9h-31.9v140.3h31.9v-91.8c7.2-12.1,21-19.5,35.3-19.5
				c19.8,0,33,13.8,33,36.4v74.9h32.1v-80.1C1063.6,550.7,1041.2,526.3,1006.2,526.3z"/>
			<path class="st0" d="M1157.2,526.3c-40.5,0-72.3,31.6-72.3,72.3c0,41.9,32.4,73.8,72.9,73.8c29,0,52.5-11.5,62.8-30.4l-25.5-16.4
				c-6.6,10.9-20.9,17.8-36.7,17.8c-22.7,0-38.2-13.8-41.6-36.4h106.8c0.9-4.3,1.1-10,1.1-13.8
				C1224.7,555.6,1195.1,526.3,1157.2,526.3z M1117.9,582.6c4.9-18.4,18.4-29.8,37.6-29.8c19.2,0,33.9,12.3,35.6,29.8H1117.9z"/>
			<polygon class="st0" points="1336,529.2 1298.4,624.8 1260.8,529.2 1226.4,529.2 1282.1,662.1 1256.8,718.9 1291.3,718.9 
				1370.5,529.2 			"/>
		</g>
		
			<g transform="matrix(0.3999999165534973,-0.0002703990612644702,0.0002703990612644702,0.3999999165534973,15.49549388885498,9.027724266052246)" class="st1">
			<g transform="matrix(1,0,0,1,153.08299255371094,51.194000244140625)" class="st2">
				<path class="st0" d="M786.2,941c268.4,0,486.8,218.4,486.8,486.8l-83.9,0c0-222.2-180.8-402.9-402.9-402.9L786.2,941z"/>
			</g>
			<g transform="matrix(1,0,0,1,51.19499969482422,153.08299255371094)" class="st2">
				<path class="st0" d="M401.3,1325.9l83.9,0c0,222.2,180.8,403,402.9,403l0,83.9C619.6,1812.7,401.3,1594.3,401.3,1325.9z"/>
			</g>
		</g>
		<g transform="matrix(0.4000000059604645,0,0,0.4000000059604645,249.39999389648438,8.999999046325684)" class="st1">
			<g transform="matrix(1,0,0,1,51.194000244140625,51.194000244140625)" class="st2">
				<path class="st0" d="M2611,940.4c268.4,0,486.8,218.4,486.8,486.8h-83.9c0-222.2-180.8-402.9-402.9-402.9V940.4z"/>
			</g>
		</g>
		<g transform="matrix(0.4000000059604645,0,0,0.4000000059604645,15.523191452026367,8.999999046325684)" class="st1">
			<g transform="matrix(1,0,0,1,51.19499969482422,153.08299255371094)" class="st2">
				<path class="st0" d="M402.2,1325.3H486c0,222.2,180.8,403,402.9,403v83.9C620.6,1812.1,402.2,1593.7,402.2,1325.3z"/>
			</g>
		</g>
		<g transform="matrix(0.4000000059604645,0,0,0.4000000059604645,249.39999389648438,8.999999046325684)">
			<g transform="matrix(1,0,0,1,51.194000244140625,51.194000244140625)">
				<path class="st0" d="M2611,940.4c268.4,0,486.8,218.4,486.8,486.8h-83.9c0-222.2-180.8-402.9-402.9-402.9V940.4z"/>
			</g>
		</g>
		<g transform="matrix(0.4000000059604645,0,0,0.4000000059604645,15.523191452026367,8.999999046325684)">
			<g transform="matrix(1,0,0,1,51.19499969482422,153.08299255371094)">
				<path class="st0" d="M402.2,1325.3H486c0,222.2,180.8,403,402.9,403v83.9C620.6,1812.1,402.2,1593.7,402.2,1325.3z"/>
			</g>
		</g>
	</g>
</g>
</svg>
